<?xml version="1.0" encoding="utf-8"?>
<!-- Generator: Adobe Illustrator 18.1.1, SVG Export Plug-In . SVG Version: 6.00 Build 0)  -->
<svg version="1.1" id="Слой_1" xmlns="http://www.w3.org/2000/svg" xmlns:xlink="http://www.w3.org/1999/xlink" x="0px" y="0px"
	 viewBox="0 0 94.3 320.3" enable-background="new 0 0 94.3 320.3" xml:space="preserve">
<path fill="#fff" d="M70.5,267.3c-5.1,3.9-10.6,7.5-16.4,10.1c-5,2.2-8.3-0.2-8.3-5.7c0-6.1,0.5-12.3,1.7-18.3c8.5-41.9,17.4-83.6,25.8-125.5
	c1.8-9,2.4-18.4,2.5-27.7c0.1-6.8-3.6-9.1-9.9-7.3c-4.1,1.2-8.2,2.7-12.1,4.6c-16.3,8.3-30.6,19.3-44.2,31.5
	c-4.2,3.8-8.7,7.6-9.7,13.3v8c2-0.3,3.4-0.1,4.6-0.9c6.7-4,13.2-8.4,20-12.1c2.1-1.1,6.2-1.9,7.2-0.8c1.5,1.7,2,5.2,1.5,7.7
	c-4.1,21-8.6,42-12.8,63c-5.1,25.1-10.4,50.1-14.8,75.3c-1.4,8.1-0.9,16.5-0.7,24.8c0.1,5.6,3,9.9,8,12.9h7
	c25.9-8,45.3-25.3,61.9-46.1c4.5-5.7,3.9-12.4,3-20.2C79.5,259,75.3,263.6,70.5,267.3z M56.4,42.8c5.3,2.8,22.5,0.6,27.2-3.6
	c7-6.4,10.6-14.3,10.8-24.2c-0.7-4.7,0.2-11-6-13.2C78.1-2,68.5,0.8,59,5.2c-7.6,3.6-9.2,10.4-10.6,17.4
	C46.9,30.1,50.9,39.9,56.4,42.8z"/>
</svg>
