<?xml version="1.0" encoding="utf-8"?>
<!-- Generator: Adobe Illustrator 18.1.1, SVG Export Plug-In . SVG Version: 6.00 Build 0)  -->
<svg version="1.1" id="Layer_1" xmlns="http://www.w3.org/2000/svg" xmlns:xlink="http://www.w3.org/1999/xlink" x="0px" y="0px"
	 viewBox="0 0 340.6 51.9" enable-background="new 0 0 340.6 51.9" xml:space="preserve">
<path fill="#fff" fill-rule="evenodd" clip-rule="evenodd" d="M132.6,20.1c2.7-0.6,5.7-3.7,6.4-6.3c1.5-5.1-1.3-10.9-9.2-12.2
	c-2.5-0.4-5.5-0.6-8.2-0.3l-1,0.1c-6.3,1-12.2,0.9-17.9,0c-0.1,0.1-0.1,0.3-0.1,0.5c2.4,0.2,3.9,4.6,4,7.3
	c0.3,8.2,0.4,18.4,0.2,27.3c-0.1,3.3,0.2,12.5-4.2,13.9c0,0.2,0,0.4,0.1,0.6c6.7-1,12.7-0.8,19.2,0.1c11.7,1.6,22.8-4.6,23.2-16.5
	C145.4,27.1,139.8,21.3,132.6,20.1z M128,46.7c-3.6,1.7-7.1,1.5-9.7,0.9c-0.2-0.6-0.7-3.7-0.7-4.4c-0.5-10.1-0.6-23.7-0.1-33.9
	c0-0.7,0.4-3.8,0.7-4.3c1.8-0.7,4.9-1.5,8-0.3c5.2,2.3,6.2,12.1-2.4,15.8c-3.4,1.5-5,3.4-5.2,4.4c0.1,0.1,0.2,0.2,0.4,0.3
	c2-2.2,5.5-2.9,8.4-1.9C135.2,26,136.4,42.3,128,46.7z M290,43.2c-0.7-10.3-0.8-23.9-0.1-34c0.2-2.7,1.6-6.8,4-7.3
	c0-0.2,0-0.4-0.1-0.5c-6.3,1.1-12.5,1.1-18.7,0c-0.1,0.2-0.1,0.3-0.1,0.5c2.4,0.5,3.9,4.3,3.8,6.6c-0.2,9.5-14.2,14.4-19.1,21.9
	c-0.1-7.3,0-14.9,0.4-21.1c0.2-2.7,1.6-6.8,4.1-7.3c0-0.2,0-0.4-0.1-0.5c-6.3,1.1-12.5,1.1-18.7,0c-0.1,0.2-0.1,0.3-0.1,0.5
	c2.5,0.5,3.9,4.6,4,7.3c0.6,10.3,0.6,23.8,0,34c-0.2,2.7-1.4,6.6-4,7.3c0,0.2,0,0.4,0.1,0.6c6.2-0.9,12.4-0.9,18.8,0
	c0.1-0.1,0.2-0.4,0.1-0.6c-3.2-0.6-4.3-6.3-4.3-10.7c0.1-9.6,13.3-15.5,19.3-22.8c0.3,9,0.2,18.3-0.3,26.3c-0.2,2.7-1.5,6.8-4,7.3
	c0,0.2,0,0.4,0.1,0.5c6.2-1,12.5-1,18.9,0c0.1-0.2,0.1-0.4,0.1-0.5C291.5,49.9,290.2,46,290,43.2z M328,20.1
	c2.7-0.6,5.7-3.7,6.4-6.3c1.5-5.1-1.3-10.9-9.2-12.2c-2.5-0.4-5.5-0.6-8.2-0.3l-1,0.1c-6.3,1-12.2,1-17.9,0
	c-0.1,0.1-0.1,0.3-0.1,0.5c2.4,0.2,3.9,4.6,4,7.3c0.3,8.2,0.4,18.4,0.2,27.3c-0.1,3.3,0.2,12.5-4.2,13.9c0,0.2,0,0.4,0.1,0.6
	c6.7-1,12.7-0.8,19.2,0.1c11.7,1.6,22.8-4.6,23.2-16.5C340.9,27.1,335.2,21.3,328,20.1z M323.5,46.7c-3.6,1.7-7.1,1.5-9.7,0.9
	c-0.2-0.6-0.7-3.7-0.7-4.4c-0.5-10.2-0.6-23.8-0.1-34.1c0-0.7,0.4-3.8,0.7-4.3c1.8-0.7,4.9-1.5,8.1-0.4c5.2,2.3,6.2,12.1-2.4,15.9
	c-3.4,1.5-5,3.4-5.2,4.4c0.1,0.1,0.2,0.2,0.4,0.3c2-2.2,5.5-2.9,8.4-1.9C330.8,25.9,331.9,42.3,323.5,46.7z M157.3,48.4
	c-3.5,0.1-6.9-2-7.6-6.3c-1.1,1.7-2.1,3.2-3.2,4.3c-1.8,2-3.4,3.5-5.7,4c0,0.2,0,0.5,0.1,0.6c5.9-0.9,12.7-0.8,18.5,0
	c0.1-0.1,0.1-0.4,0.1-0.6C158.4,50.1,157.7,49.4,157.3,48.4z M101.8,47.9c-2.3,1.1-4.2,0.6-5.8-1.4c-1.7-2.1-2.9-5.6-4.5-9.4
	c-4.5-10.7-9.9-14-18.2-15c4.4-3,5.6-6.4,9.6-9.5c3-2.3,6-2.6,7.7,2c7.8-4.2,5.6-12.9-0.3-13.7C79.9-0.3,77.3,20.1,67.6,21.8
	c0-4.4,0.2-8.7,0.4-12.4c0.2-2.7,1.7-6.9,4.1-7.4c0-0.2-0.1-0.4-0.1-0.5c-6.2,1.1-12.4,1.1-18.6,0c-0.1,0.1-0.2,0.4-0.2,0.5
	c2.3,0.5,3.9,4.6,4,7.4c0.6,10.3,0.6,23.6,0,33.8c-0.2,2.1-1,5-2.5,6.4c-1.8-0.9-3.4-2.2-4.5-4.2C42.5,31,36,15,29.1,0
	C28.7,0,28.4,0,28,0c-2.8,6.3-5.9,14.3-8.7,21c-0.6,1.5-1.4,3.4-2.4,5.4c1.4-0.4,2.8-0.6,4.2-0.5c0.5-1.4,1-2.7,1.4-4
	c1-2.7,2.3-6,3.1-8.1c2.2,5,4.6,10.9,6.7,16l0,0c0.2,0.4,0.9,2,1.8,4.1c-3.3-3.5-7.4-5.6-12.5-5.8C14.6,28,9.4,32.1,9.6,38
	c0.7-3.4,3.7-6.1,7.2-5.9c-5.3,1.8-8.6,8.7-4,12.9c4.4,3.6,9.2-0.7,7.6-3.9c-0.7-1.9-4.5-2.1-5.4,0c-0.6-0.1-0.7-1-0.5-1.8
	c1.6-8.7,21.1-6,23.5,7.1c0.1,2.2-0.4,3.8-2,4.2c0,0.2,0,0.4,0.1,0.5c5.6-0.7,11.4-0.8,17.1-0.4c0.4,0,1.8,0.1,1.8,0.1
	s1.6-0.1,2.1-0.2c5-0.4,10-0.3,15.1,0.4c0.1-0.2,0.2-0.4,0.1-0.6c-2.4-0.7-3.9-4.6-4.1-7.3c-0.4-5.5-0.5-11.6-0.6-17.9h0.2
	c7.2,0,9,7.3,12,14.4C83.3,48.4,86,51.9,93,51.9c3,0,6.7-1,9.1-3.6C102.1,48.2,102,48,101.8,47.9z M16.4,48.4
	c-3.5,0.1-6.9-2-7.6-6.3c-1.1,1.7-2.1,3.2-3.2,4.3c-1.8,2-3.4,3.5-5.7,4c0,0.2,0,0.5,0.1,0.6c5.9-0.9,12.7-0.9,18.5,0
	c0.1-0.1,0.1-0.4,0.1-0.6C17.5,50.1,16.8,49.4,16.4,48.4z M219.1,0.3c-8.2-0.9-20.8,0.2-28.6,7.1c-4.8,4.3-4.2,9.4-1.9,11.7
	c2.6,2.6,9,2.2,11.5-3.1c-2.2-0.7-3.8-3.8-3-5.9c1.9-5.1,8.1-6.6,13.3-6.7c19.7-0.4,22.1,16.3,21.9,24c-0.2,8.4-4.4,19.4-13.7,20.6
	c-1.9,0.2-4.1,0.1-5.5-0.5c-0.8-1.4-0.7-6.1-0.6-8.4c0.1-5.6-0.1-11.2-0.1-16.9c0-5,0.1-11.3,3.4-15.7c-0.7-0.2-1.5-0.3-2.2-0.4
	c-3.2-0.3-6.7,0.4-8.6,3.2c-2.5,3.6-2.4,7.8-2.5,12c0,0.2,0.3,14.4,0,21.3c-0.2,2.7-2,7.2-4.5,7.9v0c0,0,0,0,0-0.1
	c-2.4-0.6-5.3-2.2-6.8-5C183.4,31,176.9,15,170,0c-0.3-0.1-0.7-0.1-1,0c-2.8,6.3-5.9,14.3-8.7,21c-0.6,1.5-1.4,3.4-2.4,5.4
	c1.4-0.4,2.8-0.6,4.2-0.5c0.5-1.4,1-2.7,1.4-4c1-2.7,2.3-6,3.1-8.1c2.2,5,4.6,10.9,6.7,16l0,0c0.2,0.4,0.9,2,1.8,4.1
	c-3.3-3.5-7.4-5.6-12.5-5.8c-7.2-0.2-12.4,3.9-12.1,9.8c0.7-3.4,3.7-6.1,7.2-5.9c-5.3,1.8-8.6,8.7-4,12.9c4.4,3.6,9.2-0.7,7.6-3.9
	c-0.7-1.9-4.5-2.1-5.4,0c-0.6-0.1-0.7-1-0.5-1.8c1.6-8.7,21.1-6,23.5,7.1c0.1,2.2-0.4,3.8-2,4.2c0,0.2,0,0.4,0.1,0.5
	c6.8-0.9,14-0.8,20.9,0c0-0.1,0-0.1,0-0.2c0,0.1,0,0.1,0.1,0.2c6.2-0.8,11.5-0.9,18,0.1c2.5,0.4,4.9,0.2,7.3-0.2
	c11.1-1.9,19.7-11.8,20.2-23.3C244.1,14.4,238.4,2.4,219.1,0.3z"/>
</svg>
