<?xml version="1.0" encoding="utf-8"?>
<!-- Generator: Adobe Illustrator 18.1.1, SVG Export Plug-In . SVG Version: 6.00 Build 0)  -->
<svg version="1.1" id="Layer_1" xmlns="http://www.w3.org/2000/svg" xmlns:xlink="http://www.w3.org/1999/xlink" x="0px" y="0px"
	 viewBox="0 0 237.2 19.6" enable-background="new 0 0 237.2 19.6" xml:space="preserve">
<path fill="#fff" fill-rule="evenodd" clip-rule="evenodd" d="M80.5,10.8L73.4,0.4H68v18.9h5.5V8.9l7.1,10.4h5.5V0.4h-5.5V10.8z M117.4,11.2h9.1
	V7.4h-9.1v-3h9.8v-4h-15.6v18.9h15.9V15h-10.1V11.2z M57.3,19.2h5.8V0.4h-5.8V19.2z M99.3,15.2c-5,0-3.7-7.8-2.8-9.2
	c1.4-2.1,5.3-2.5,6.4,1.1l5.2-1.2c-0.7-2-1.7-3.5-3-4.4c-3.4-2.4-15.2-3.2-15.2,8.3c0,6.4,3.5,9.8,9.8,9.8c4.6,0,7.5-2,8.6-6.5
	l-5.1-1.5C102.6,13.8,101.6,15.2,99.3,15.2z M44.9,6.5c-6.4-1.4,1.6-5.7,2.5-0.6L53,5.7c-0.2-2-1-3.4-2.3-4.3
	c-3.2-2.3-13.5-2.3-13.5,4.2c0,5.9,8.4,5.5,10.1,7c3,2.7-4.5,5.8-5.3,0.1L36.5,13c0.2,1.9,0.9,3.5,2.1,4.7c2.9,2.9,15,3.3,15-4.6
	C53.6,8.6,49.2,7.4,44.9,6.5z M173,4.8h9.3c-1.9,2.4-3.3,4.6-4.2,6.7c-0.9,2.1-1.5,4.7-1.9,7.8h5.2c0.2-2.2,0.5-4.1,1-5.8
	c0.6-2.1,1.5-4,2.6-5.7c0.9-1.4,2-2.7,3.3-3.9V0.4H173V4.8z M144.4,3c-1,0.8-2.4,1.5-4.2,2.1l0,4.3c1.2-0.4,2.2-0.8,3-1.2
	c0.8-0.4,1.6-0.9,2.5-1.6v12.6h5.3V0h-4.3C146.2,1.2,145.4,2.2,144.4,3z M194.2,3c-1,0.8-2.4,1.5-4.2,2.1l0,4.3
	c1.2-0.4,2.2-0.8,3-1.2c0.8-0.4,1.6-0.9,2.5-1.6v12.6h5.3V0h-4.3C195.9,1.2,195.1,2.2,194.2,3z M167.9,9.1c4.2-2.8,3.3-8.9-4.7-9.1
	c-0.1,0-0.2,0-0.3,0c-7.4,0-8.8,6.6-4.3,9.1c-2.1,0.8-3.2,2.4-3.2,4.6c0,4.4,3.8,6,7.7,5.9c1.1,0,2.2-0.2,3.2-0.4
	C171.7,18,172.6,11.3,167.9,9.1z M163.2,3.2c1.1,0,2.2,0.7,2.2,2.2c0,1.5-1.1,2.2-2.2,2.1c-1.1,0-2.1-0.8-2.1-2.2
	C161,3.9,162.1,3.2,163.2,3.2z M163.2,16.3c-1.2,0-2.4-1-2.4-2.8c0-1.9,1.2-2.9,2.4-2.8c1.2,0,2.5,1,2.5,2.8
	C165.7,15.4,164.4,16.3,163.2,16.3z M25.8,12.1V7.2L0,9.6L25.8,12.1z M211.4,7.2v4.9l25.8-2.5L211.4,7.2z"/>
</svg>
