<?xml version="1.0" encoding="utf-8"?>
<!-- Generator: Adobe Illustrator 18.1.1, SVG Export Plug-In . SVG Version: 6.00 Build 0)  -->
<svg version="1.1" id="Layer_1" xmlns="http://www.w3.org/2000/svg" xmlns:xlink="http://www.w3.org/1999/xlink" x="0px" y="0px"
	 viewBox="0 0 385.3 62.5" enable-background="new 0 0 385.3 62.5" xml:space="preserve">
<path fill="white" fill-rule="evenodd" clip-rule="evenodd" d="M315.5,2.2c0-0.2,0-0.4-0.1-0.6c-7.5,1.4-15.1,1.4-22.5,0
	c-0.1,0.2-0.1,0.4-0.1,0.6c3,0.6,4.6,5.5,4.8,8.8c0.7,12.3,0.7,28.6,0,40.7c-0.2,3.3-1.7,7.9-4.8,8.7c0,0.3,0,0.5,0.1,0.7
	c7.3-1.1,15.2-1.1,22.5,0c0.1-0.2,0.2-0.4,0.1-0.7c-3.1-0.8-4.5-5.5-4.8-8.7c-0.7-12.2-0.7-28.4,0-40.7
	C310.9,7.7,312.5,2.8,315.5,2.2z M222.1,54.4C213,37,205.1,18,196.9,0.1c-0.4-0.1-0.8-0.1-1.2,0c-3.3,7.6-7,17.1-10.5,25.1
	c-0.8,1.8-1.7,4-2.8,6.5c1.6-0.5,3.4-0.7,5.1-0.6c0.6-1.7,1.2-3.2,1.7-4.7c1.2-3.2,2.8-7.2,3.7-9.7c2.6,6,5.5,13.1,8,19.2l0,0
	c0.2,0.5,1.1,2.4,2.2,4.9c-3.9-4.2-8.9-6.8-14.9-6.9c-8.6-0.2-14.8,4.7-14.5,11.8c0.9-4,4.4-7.3,8.6-7.1
	c-6.3,2.1-10.3,10.4-4.8,15.4c5.2,4.3,11-0.8,9.1-4.6c-0.8-2.3-5.4-2.5-6.4-0.1c-0.8-0.1-0.8-1.1-0.6-2.2
	c1.9-10.4,25.2-7.2,28.1,8.5c0.1,2.6-0.5,4.5-2.4,5c-0.1,0.2,0,0.4,0.1,0.6c8.1-1.1,16.7-1,25,0c0.1-0.2,0.1-0.5,0-0.7
	C227.3,59.6,223.9,57.7,222.1,54.4z M181.7,57.9c-4.2,0.2-8.2-2.4-9-7.5c-1.3,2-2.6,3.8-3.8,5.2c-2.1,2.4-4.1,4.1-6.8,4.8
	c0,0.2,0,0.5,0.1,0.7c7-1,15.2-1,22.2,0c0.1-0.1,0.2-0.5,0.1-0.7C183.1,59.9,182.2,59.1,181.7,57.9z M123,57.3c-2.7,1.4-5,0.8-7-1.7
	c-2-2.5-3.5-6.7-5.4-11.2c-5.4-12.8-11.8-16.8-21.8-17.9c5.3-3.5,6.1-7.8,10.8-11.4c3.6-2.7,7.1-3.1,9.2,2.4
	c9.3-5.1,6.7-15.4-0.4-16.3C96.2-0.5,93.7,24,82.1,26.1c0.1-5.3,0.2-10.4,0.5-14.9c0.2-3.3,2-8.2,4.9-8.8c0-0.2-0.1-0.5-0.2-0.6
	c-7.4,1.3-14.8,1.3-22.3,0c-0.1,0.1-0.2,0.4-0.2,0.6c2.8,0.5,4.7,5.5,4.8,8.8c0.7,12.3,0.7,28.3,0,40.4c-0.2,2.7-1.4,6.5-3.5,8.1
	c-2.4-1-4.8-2.7-6.2-5.3C50.9,37,43,18,34.8,0.1C34.4,0,34,0,33.5,0.1c-3.3,7.6-7.1,17.1-10.5,25.1c-0.8,1.8-1.7,4-2.8,6.5
	c1.6-0.5,3.4-0.7,5.1-0.6c0.6-1.7,1.2-3.2,1.7-4.7c1.2-3.2,2.8-7.2,3.7-9.7c2.6,6,5.5,13.1,8,19.2l0,0c0.2,0.5,1.1,2.4,2.2,4.9
	C37,36.5,32,33.9,26,33.7c-8.6-0.2-14.8,4.7-14.5,11.8c0.9-4,4.4-7.3,8.6-7.1c-6.3,2.1-10.3,10.4-4.8,15.4c5.2,4.3,11-0.8,9.1-4.6
	c-0.8-2.3-5.4-2.5-6.4-0.1c-0.8-0.1-0.8-1.1-0.6-2.2c2-10.4,25.2-7.2,28.1,8.5c0.1,2.6-0.5,4.5-2.4,5c0,0.2,0,0.4,0.1,0.6
	c7.1-0.9,14.5-0.9,21.8-0.3c0,0.1,0.1,0.2,0.1,0.3c0.5-0.1,0.9-0.1,1.4-0.2c0.6,0.1,1.2,0.1,1.7,0.2c0.1-0.1,0.1-0.2,0.1-0.4
	c6.4-0.6,12.8-0.5,19.3,0.4c0.1-0.2,0.2-0.4,0.1-0.7c-2.9-0.8-4.6-5.5-4.9-8.7c-0.4-6.5-0.7-13.9-0.7-21.4h0.2
	c8.6,0,10.8,8.7,14.3,17.3c4.3,10.4,7.5,14.6,15.9,14.6c3.6,0,8-1.1,10.9-4.3C123.4,57.7,123.2,57.4,123,57.3z M19.6,57.9
	c-4.2,0.2-8.2-2.4-9-7.5c-1.3,2-2.6,3.8-3.8,5.2C4.6,58,2.7,59.7,0,60.4c0,0.2,0,0.5,0.1,0.7c7.1-1.1,15.2-1.1,22.2,0
	c0.1-0.1,0.2-0.5,0.1-0.7C21,59.9,20.1,59.1,19.6,57.9z M182.9,2.2c0-0.2,0-0.5-0.1-0.7c-7.5,1.1-15.6,1-22.2,0
	c-0.1,0.1-0.2,0.5-0.1,0.7c3.1,1,3.6,3.8,2.9,8.5c-2.4,11.5-7.8,22.7-12.2,33.8c-3.6-8.6-8.2-18.8-11.3-27.9
	c-2.1-6.3-3.2-13.4,0.7-14.4c0.1-0.2,0-0.4-0.1-0.6c-8.2,1-15.5,1.1-23.8,0.1c-0.1,0.2-0.2,0.6-0.1,0.7c6.1,2.9,7.3,8.2,9.9,14.2
	l20.1,45.9c0.4,0.1,0.8,0.1,1.2,0c3.5-7.6,7.4-17.1,11-25.1c3.6-8,11.1-23.9,17-30.4C178.2,4.6,180.2,2.9,182.9,2.2z M385.1,1.4
	c-7.5,1.1-15.6,1-22.2,0c-0.1,0.1-0.2,0.5-0.1,0.7c3.1,1,3.6,3.8,2.9,8.5c-2.4,11.5-7.8,22.7-12.2,33.8c-3.6-8.6-8.2-18.8-11.3-27.9
	c-2.1-6.3-3.2-13.4,0.7-14.4c0.1-0.2,0-0.4-0.1-0.6c-8.2,1-17.5,0.9-25.8,0c-0.1,0.2-0.1,0.5-0.1,0.7c7.2,1.7,9.3,8.3,11.9,14.3
	l20.1,45.9c0.4,0.1,0.8,0.1,1.2,0c3.5-7.6,7.4-17.1,11-25.1c3.6-8,11.1-23.9,16.9-30.4c2.2-2.4,4.2-4.1,6.9-4.8
	C385.3,1.9,385.2,1.6,385.1,1.4z M258.2,0.5c-9.8-1-24.9,0.2-34.2,8.5c-5.7,5.1-5.1,11.3-2.3,14c3.2,3.1,10.7,2.6,13.8-3.7
	c-2.7-0.8-4.6-4.5-3.6-7.1c2.2-6.2,9.6-7.9,15.9-8.1c23.5-0.5,26.4,19.5,26.2,28.7c-0.2,10-5.2,23.2-16.3,24.6c-2.3,0.3-4,0-6.5-1.3
	c-0.9-1.7-0.8-6.5-0.8-9.2c0.1-6.7-0.1-13.4-0.1-20.2c0.1-6,0.1-13.5,4-18.8c-0.9-0.2-1.8-0.4-2.7-0.5c-3.8-0.4-8,0.5-10.3,3.8
	c-3,4.3-2.9,9.4-3,14.3c0,0.3,0.4,17.2,0,25.4c-0.2,3.3-2.4,8.7-5.4,9.5c-0.1,0.2,0,0.5,0.1,0.7c7.5-1,14.5-0.4,21.9,0.2
	c3.5,0.3,5.5,0.2,8.4-0.3c13.3-2.3,23.5-14.1,24.2-27.8C288.1,17.3,281.4,3,258.2,0.5z"/>
</svg>
